<svg xmlns="http://www.w3.org/2000/svg" viewBox="0 0 64 64">
  <!-- Background circle -->
  <circle cx="32" cy="32" r="31" fill="#DBEAFE" stroke="#93C5FD" stroke-width="1.5"/>

  <!-- Head -->
  <circle cx="32" cy="20" r="8.5" fill="#F9A825"/>

  <!-- Hair -->
  <path d="M23.5 18c0-5 4-9 8.5-9s8.5 4 8.5 9c0 1-0.5 1.5-1.5 1.5h-14c-1 0-1.5-0.5-1.5-1.5z" fill="#8D6E63"/>

  <!-- Face features -->
  <circle cx="28.5" cy="20.5" r="1" fill="#5D4037"/>
  <circle cx="35.5" cy="20.5" r="1" fill="#5D4037"/>
  <path d="M30 24c0.5 1 3.5 1 4 0" stroke="#5D4037" stroke-width="0.8" fill="none" stroke-linecap="round"/>

  <!-- Body / Hospital gown -->
  <path d="M22 42v-6c0-6 4.5-10 10-10s10 4 10 10v6" fill="#90CAF9"/>
  <path d="M27 26.5c1.5 1 8.5 1 10 0" stroke="#64B5F6" stroke-width="0.5" fill="none"/>

  <!-- Gown neckline -->
  <path d="M29 27l3 3 3-3" stroke="#64B5F6" stroke-width="1" fill="none" stroke-linecap="round"/>

  <!-- Bandage/sling on arm -->
  <path d="M22 34c-2 0-4 1-4 3v3c0 1.5 1.5 2.5 3 2l5-3" fill="#FFFFFF" stroke="#E0E0E0" stroke-width="0.8"/>
  <path d="M20 34l1 6" stroke="#EF5350" stroke-width="0.6" stroke-linecap="round"/>
  <path d="M18.5 36l4 0.5" stroke="#EF5350" stroke-width="0.6" stroke-linecap="round"/>

  <!-- Sling strap -->
  <path d="M22 35c3-1 5 0 7-4" stroke="#E0E0E0" stroke-width="1.5" fill="none" stroke-linecap="round"/>

  <!-- Legs -->
  <rect x="26" y="42" width="4.5" height="10" rx="2" fill="#78909C"/>
  <rect x="33.5" y="42" width="4.5" height="10" rx="2" fill="#78909C"/>

  <!-- Shoes -->
  <ellipse cx="28.25" cy="52.5" rx="3" ry="1.5" fill="#5D4037"/>
  <ellipse cx="35.75" cy="52.5" rx="3" ry="1.5" fill="#5D4037"/>
</svg>
